<svg version="1.1" xmlns="http://www.w3.org/2000/svg" xmlns:xlink="http://www.w3.org/1999/xlink" width="186.27214" height="32.19758" viewBox="0,0,186.27214,32.19758"><g transform="translate(-147.08826,-163.92159)"><g data-paper-data="{&quot;isPaintingLayer&quot;:true}" fill="#ffffff" fill-rule="nonzero" stroke="none" stroke-width="1" stroke-linecap="butt" stroke-linejoin="miter" stroke-miterlimit="10" stroke-dasharray="" stroke-dashoffset="0" style="mix-blend-mode: normal"><path d="M248.74012,195.75791h-19.76415c-0.05342,0 -0.05342,0 -0.10683,0c-0.42733,0 -0.80125,-0.16025 -1.12175,-0.42733c-0.26708,-0.26708 -0.42733,-0.641 -0.42733,-1.06833c0,-0.21367 0.05342,-0.42733 0.16025,-0.641v0l5.4485,-12.01874h-6.30316v-4.59383h7.85224v-4.75408h-7.26466v-4.59383h7.26466v-2.67083h5.82241v2.67083h7.69199v4.59383h-7.69199v4.75408h7.69199v4.59383h-8.54666l-4.54041,9.93549h7.58516l-2.35033,-7.85224h5.50191z"/><path d="M282.23235,170.27817h-4.70066v1.81617h1.49567c1.76275,0 2.67083,1.33542 2.67083,3.95283v1.81617h-3.31183c0.85467,0.42733 1.282,1.38883 1.282,2.99133l-0.05342,4.91433h-19.2834v-3.5255h13.99516v-1.44225h-15.06349v6.24975h18.05482c2.83108,0 4.27333,1.49567 4.27333,4.43358l-0.05342,4.32675h-29.69965v-8.70691h2.13667v-9.08083h-2.2435v0v0v-5.92925h4.43358v-1.81617h-4.86091v-4.00625h4.86091v-1.282h5.28825v1.282h10.79016v-1.282h5.28825v1.282h4.70066v4.05966zM261.45327,172.20117h10.79016v-1.86958h-10.79016zM257.23336,190.68333v1.65592h19.06974v-1.70933zM276.40993,177.32917v-1.44225h-19.39024v1.44225h2.29692h17.14674v0v0z"/><path d="M159.05359,168.88934v4.8075c0,2.2435 -1.12175,3.95283 -3.25841,5.18141h3.25841v9.56158c0,3.89941 -2.13667,5.60875 -6.41,5.23483v-4.59383l0.9615,-0.05342v-19.97782h-1.65592v27.02882h-4.86091v-31.08848h8.17274c2.51058,-0.05342 3.79258,1.282 3.79258,3.89941z"/><path d="M225.2368,168.08809c0,2.29692 -1.86958,4.1665 -4.1665,4.1665c-2.29692,0 -4.1665,-1.86958 -4.1665,-4.1665c0,-2.29692 1.86958,-4.1665 4.1665,-4.1665c2.29692,0 4.1665,1.86958 4.1665,4.1665zM222.45914,168.08809c0,-0.74783 -0.641,-1.38883 -1.38883,-1.38883c-0.74783,0 -1.38883,0.641 -1.38883,1.38883c0,0.74783 0.641,1.38883 1.38883,1.38883c0.74783,0 1.38883,-0.58758 1.38883,-1.38883z"/><path d="M224.32872,173.75025c0.42733,2.45717 0.641,4.96775 0.641,7.53175c0,5.02116 -0.80125,9.88208 -2.35033,14.42249h-5.128c1.70933,-4.487 2.67083,-9.34791 2.67083,-14.42249c0,-2.564 -0.21367,-5.07458 -0.69442,-7.53175z"/><path d="M206.75465,195.70449c-2.564,-0.05342 -3.846,-1.54908 -3.846,-4.59383v-26.17415h5.28825v26.44123h9.13424c-0.37392,1.44225 -0.85467,2.93791 -1.38883,4.32675z"/><path d="M194.46882,178.82483c0,1.44225 -0.10683,2.8845 -0.26708,4.27333c-0.69442,2.564 -1.76275,4.86091 -3.09816,6.83733l-0.10683,0.10683c-1.86958,2.564 -4.64725,4.487 -7.85224,5.23483v-5.55533c1.01492,-0.37392 1.923,-1.01492 2.67083,-1.76275l0.05342,-0.05342c0.16025,-0.10683 0.3205,-0.26708 0.42733,-0.42733c1.282,-1.44225 2.19008,-3.25841 2.564,-5.23483v-0.05342c0,-0.05342 0,-0.05342 0,-0.10683c0.05342,-1.01492 0.10683,-1.97642 0.10683,-2.93791l0.05342,-14.20882h5.28825z"/><g><path d="M175.773,196.07841h-2.564v-24.94557c0,-1.22858 -0.48075,-1.81617 -1.49567,-1.81617h-11.05724v-4.32675h13.62124c2.83108,0 4.21991,1.44225 4.1665,4.38016v23.98407c-0.05342,1.81617 -0.90808,2.72425 -2.67083,2.72425z"/><path d="M172.19409,174.231v20.67224h-11.05724v-20.2449c0,-2.61741 1.22858,-3.95283 3.68575,-3.95283h4.00625c2.2435,0 3.36525,1.17517 3.36525,3.5255zM168.08101,176.26084c0,-1.12175 -0.48075,-1.65592 -1.44225,-1.65592h-1.38883v16.77282h2.83108z"/></g><text transform="translate(285.05898,192.38067) scale(0.29908,0.29908)" font-size="40" xml:space="preserve" fill="#ffffff" fill-rule="nonzero" stroke="none" stroke-width="1" stroke-linecap="butt" stroke-linejoin="miter" stroke-miterlimit="10" stroke-dasharray="" stroke-dashoffset="0" font-family="Sans Serif" font-weight="normal" text-anchor="start" style="mix-blend-mode: normal"><tspan x="0" dy="0">预管中心</tspan></text><text transform="translate(289.51036,178.13624) scale(0.29908,0.29908)" font-size="40" xml:space="preserve" fill="#ffffff" fill-rule="nonzero" stroke="none" stroke-width="1" stroke-linecap="butt" stroke-linejoin="miter" stroke-miterlimit="10" stroke-dasharray="" stroke-dashoffset="0" font-family="Sans Serif" font-weight="normal" text-anchor="start" style="mix-blend-mode: normal"><tspan x="0" dy="0">Admin</tspan></text></g></g></svg>